<?xml version="1.0" encoding="UTF-8"?>
<!DOCTYPE svg PUBLIC "-//W3C//DTD SVG 1.1//EN" "http://www.w3.org/Graphics/SVG/1.1/DTD/svg11.dtd">
<!-- Creator: CorelDRAW 2021 (64-Bit) -->
<svg xmlns="http://www.w3.org/2000/svg" xml:space="preserve" width="512px" height="512px" version="1.1" style="shape-rendering:geometricPrecision; text-rendering:geometricPrecision; image-rendering:optimizeQuality; fill-rule:evenodd; clip-rule:evenodd"
viewBox="0 0 512 512"
 xmlns:xlink="http://www.w3.org/1999/xlink"
 xmlns:xodm="http://www.corel.com/coreldraw/odm/2003">
 <defs>
  <style type="text/css">
   <![CDATA[
    .str0 {stroke:black;stroke-width:2;stroke-linecap:round;stroke-linejoin:round;stroke-miterlimit:2.61313}
    .fil0 {fill:black}
    .fil1 {fill:white}
   ]]>
  </style>
 </defs>
 <g id="Layer_x0020_1">
  <metadata id="CorelCorpID_0Corel-Layer"/>
  <rect class="fil0 str0" width="512" height="512"/>
  <path class="fil1" d="M241.84 133.94c3.74,2.14 7.22,4.3 9.19,5.85 2.77,-1.79 7.09,-4.42 11.62,-6.92 3.64,-2.01 7.43,-3.94 10.67,-5.29 11.95,-4.97 23.82,-7.17 35.55,-6.93 12.3,0.25 24.42,3.18 36.33,8.38 5.14,2.25 11.94,6.37 18.33,10.94 6.25,4.47 12.13,9.39 15.71,13.42 5.52,6.22 9.47,10.85 13.14,15.83 3.65,4.95 7,10.21 11.31,17.71 7.06,12.26 12.95,26.51 17.39,41.77 4.47,15.31 7.48,31.62 8.79,47.95 0.53,6.68 0.92,30.5 1.08,54.8 0.18,25.45 0.1,51.4 -0.31,58.68l0 0c-0.04,0.76 -0.67,1.36 -1.44,1.36l-131.38 -0.1c-0.8,0 -1.44,-0.65 -1.44,-1.44l-0.01 -71.66 -110.25 0c-0.76,0.04 -1.42,-0.53 -1.5,-1.3 -0.51,-5.25 -0.59,-12.04 -0.42,-19.04 0.22,-9.03 0.85,-18.39 1.49,-25.16 1.16,-12.24 2.6,-18.6 4.09,-25.17 0.83,-3.65 1.67,-7.35 2.49,-12.17l-109.79 -0.13c-0.09,0 -0.18,0 -0.28,-0.02 -0.79,-0.1 -1.34,-0.83 -1.23,-1.62 0.41,-2.95 1.61,-7.08 3.06,-11.39 2.1,-6.21 4.77,-12.83 6.44,-16.74 1.97,-4.63 4.01,-8.91 6.13,-12.99 2.12,-4.08 4.34,-8 6.66,-11.91 13.45,-22.65 33.63,-42.29 57.27,-52.54 20.55,-8.92 43.7,-10.76 67.3,-1.35 2.68,1.07 8.64,4.12 14.01,7.18zm121.67 35.33c-1.25,1.08 -3.01,2.99 -4.85,5.15 -3.09,3.63 -6.36,7.93 -7.92,10.27 -2.14,3.23 -4.09,6.28 -5.97,9.46 -1.88,3.17 -3.67,6.45 -5.5,10.14 -20.83,41.88 -20.68,78.72 -20.5,122.72 0.02,4.05 0.04,8.15 0.04,12.33 0,3.01 -0.06,6.23 -0.12,9.53 -0.13,6.8 -0.27,13.95 0.13,20.08l89.45 0.1c0.44,-9.66 0.27,-28.22 0.12,-43.51 -0.07,-6.88 -0.12,-13.13 -0.12,-16.93 0,-19.04 -0.92,-36.67 -3.91,-53.71 -2.99,-17.01 -8.05,-33.45 -16.34,-50.15 -3.33,-6.72 -7.64,-14.18 -12.43,-21.02 -3.81,-5.44 -7.91,-10.49 -12.08,-14.46zm-111.17 0.19c-2.01,1.84 -4.69,4.88 -7.39,8.17 -4.75,5.78 -9.5,12.29 -10.82,14.44 -5.73,9.36 -10.5,19.48 -14.37,30.05 -4.08,11.14 -7.15,22.77 -9.26,34.5 -1.08,5.97 -2.4,15.02 -3.13,23.68 -0.49,5.75 -0.71,11.29 -0.43,15.56l89.4 0c0.7,-7.69 -0.28,-18.72 -2.08,-30.11 -2.35,-14.8 -6.09,-30.19 -9.36,-39.7 -4.08,-11.88 -8.5,-21.77 -13.87,-30.93 -5.16,-8.82 -11.21,-17 -18.69,-25.66zm-54.69 -26.34c-7.02,0 -12.55,0.52 -17.79,1.77 -5.25,1.26 -10.27,3.27 -16.26,6.26 -3.75,1.87 -7.68,4.36 -11.41,7.08 -4.11,3.01 -8,6.31 -11.16,9.4 -2.98,2.93 -5.88,6.29 -8.72,9.94 -2.85,3.67 -5.63,7.61 -8.38,11.68 -1.26,1.87 -5.84,9.75 -9.21,16.43 -1.49,2.95 -2.73,5.62 -3.32,7.33l87.94 0c3.33,-5.75 5.83,-11.24 8.33,-16.72 4.2,-9.22 8.4,-18.44 16.55,-29.05l10.13 -12.02 -6.6 -4.13c-4.39,-2.3 -9.72,-4.36 -15.21,-5.82 -5.04,-1.33 -10.21,-2.15 -14.89,-2.15zm71.2 12.14c0.64,0.75 1.47,1.68 2.44,2.75 2.68,2.99 6.31,7.04 9.65,11.79 14.48,20.67 18.29,31.02 26.64,54.14 1.72,-4.3 2.87,-7.63 3.94,-10.75 2.36,-6.87 4.36,-12.69 11.62,-26.07 3.26,-6.01 7.12,-12.01 11.18,-17.56 3.95,-5.41 8.09,-10.38 12.04,-14.52 -1.02,-0.8 -2.72,-1.8 -4.67,-2.84 -3.96,-2.11 -8.79,-4.22 -11.27,-5.11 -8.93,-3.23 -18.15,-4.46 -27.24,-3.84 -9.29,0.64 -18.44,3.21 -27.03,7.57 -0.79,0.41 -1.55,0.81 -2.26,1.2 -0.65,0.36 -1.33,0.73 -1.94,1.08l-3.1 2.16z"/>
 </g>
</svg>
